<?xml version="1.0" encoding="UTF-8" standalone="no"?>
<!-- Created with Inkscape (http://www.inkscape.org/) -->
<svg id="svg2" xmlns:rdf="http://www.w3.org/1999/02/22-rdf-syntax-ns#" xmlns="http://www.w3.org/2000/svg" xml:space="preserve" height="120" width="200" version="1.1" xmlns:cc="http://creativecommons.org/ns#" xmlns:dc="http://purl.org/dc/elements/1.1/"><metadata id="metadata8"><rdf:RDF><cc:Work rdf:about=""><dc:format>image/svg+xml</dc:format><dc:type rdf:resource="http://purl.org/dc/dcmitype/StillImage"/><dc:title/></cc:Work></rdf:RDF></metadata><g id="g10" transform="matrix(1.25,0,0,-1.25,0,120)"><g id="g12" fill-rule="nonzero" transform="matrix(0.06094214,0,0,0.06094214,4.1601108,18.452963)"><path id="path14" fill="#3f3e42" d="m472.5,581.25,138.41,0,0,146.98c0,41.012-20.496,61.52-61.512,61.52h-15.379c-41.011,0-61.519-20.508-61.519-61.52v-146.98zm-0.313-93.793,0.313-161.66c0-41.012,20.508-61.52,61.519-61.52h17.942c41.012,0,61.515,20.508,61.515,61.52v79.461h94.84v-75.617c0-103.81-52.543-156.36-156.36-156.36h-20.508c-103.81,0-156.36,52.547-156.36,144.2v394.74c0,115.96,52.543,168.52,156.36,168.52h20.508c103.81,0,156.36-52.551,156.36-156.36l-0.312-236.92h-235.82"/><path id="path16" fill="#3f3e42" d="m869.01,301.44c26.914-23.062,57.676-35.879,89.715-35.879,35.886,0,56.397,16.657,56.397,56.387v410.12c0,39.735-20.511,56.391-56.397,56.391-32.039,0-62.801-12.817-89.715-35.887v-451.13zm-97.406,571.61,97.406,0,0-44.86c23.07,24.356,62.801,52.551,119.2,52.551,83.307,0,124.32-55.109,124.32-137.13v-433.19c0-82.027-41.01-137.14-124.32-137.14-56.394,0-96.125,26.914-119.2,49.985v-223.27h-97.406v873.06"/><path id="path18" fill="#3f3e42" d="m1404.6,297.6,0,228.28-88.43-33.477c-35.89-14.101-47.42-32.039-47.42-71.769v-105.09c0-33.324,16.66-49.981,47.42-49.981,29.47,0,56.39,10.25,88.43,32.039zm-233.26,124.32c0,85.863,28.2,120.47,102.53,146.1l130.73,44.864v115.34c0,41.012-20.51,62.801-61.52,62.801h-15.87c-41.01,0-61.52-21.789-61.52-62.801v-98.027h-94.84v94.18c0,103.81,52.55,156.36,156.36,156.36h18.43c103.81,0,156.36-52.551,156.36-156.36v-543.41h-97.4v43.578c-26.91-25.637-62.8-51.27-119.19-51.27-78.18,0-114.07,44.86-114.07,121.75v126.89"/><path id="path20" fill="#3f3e42" d="m1895.9,180.98-97.41,0,0,557.5c0,34.606-16.65,49.985-46.13,49.985-26.92,0-55.11-10.25-89.72-34.602v-572.89h-97.4v692.08h97.4v-44.86c28.2,26.914,65.37,52.551,119.2,52.551,49.98,0,83.3-20.508,101.24-56.394,34.61,29.48,75.62,56.394,132.01,56.394,75.62,0,114.07-46.144,114.07-121.76v-578.01h-97.41v557.5c0,34.606-16.66,49.985-46.14,49.985-26.91,0-55.11-10.25-89.71-34.602v-572.89"/><path id="path22" fill="#29b9d2" d="m250.26,809.31,0-127.27-163.92-156.2,163.92-153.41,0-130.05l-250.26,235.26v93.63l250.26,238.04"/><path id="path24" fill="#29b9d2" d="m2503,571.27,0-93.629-250.26-235.25,0,130.05,163.92,153.41-163.92,156.2,0,127.27,250.26-238.04"/></g></g></svg>
