<?xml version="1.0" encoding="UTF-8" standalone="no"?>
<!-- Created with Inkscape (http://www.inkscape.org/) -->

<svg
   xmlns:dc="http://purl.org/dc/elements/1.1/"
   xmlns:cc="http://creativecommons.org/ns#"
   xmlns:rdf="http://www.w3.org/1999/02/22-rdf-syntax-ns#"
   xmlns:svg="http://www.w3.org/2000/svg"
   xmlns="http://www.w3.org/2000/svg"
   xmlns:sodipodi="http://sodipodi.sourceforge.net/DTD/sodipodi-0.dtd"
   xmlns:inkscape="http://www.inkscape.org/namespaces/inkscape"
   id="svg2"
   version="1.1"
   inkscape:version="0.48.4 r9939"
   width="300"
   height="300"
   xml:space="preserve"
   sodipodi:docname="github.svg"><metadata
     id="metadata8"><rdf:RDF><cc:Work
         rdf:about=""><dc:format>image/svg+xml</dc:format><dc:type
           rdf:resource="http://purl.org/dc/dcmitype/StillImage" /><dc:title></dc:title></cc:Work></rdf:RDF></metadata><defs
     id="defs6" /><sodipodi:namedview
     pagecolor="#ffffff"
     bordercolor="#666666"
     borderopacity="1"
     objecttolerance="10"
     gridtolerance="10"
     guidetolerance="10"
     inkscape:pageopacity="0"
     inkscape:pageshadow="2"
     inkscape:window-width="1240"
     inkscape:window-height="876"
     id="namedview4"
     showgrid="false"
     inkscape:zoom="1.0680355"
     inkscape:cx="425.28275"
     inkscape:cy="259.27057"
     inkscape:window-x="1366"
     inkscape:window-y="24"
     inkscape:window-maximized="1"
     inkscape:current-layer="g10" /><g
     id="g10"
     inkscape:groupmode="layer"
     inkscape:label="ink_ext_XXXXXX"
     transform="matrix(1.25,0,0,-1.25,0,300.00001)"><path
       inkscape:connector-curvature="0"
       id="path18"
       style="fill:#1b1817;fill-opacity:1;fill-rule:evenodd;stroke:none"
       d="M 120.001,240.00001 C 53.734964,240.00001 0,184.91527 0,116.96194 0,62.6005 34.383939,16.480583 82.064005,0.21147451 c 5.997268,-1.13893948 8.199048,2.66907099 8.199048,5.91881779 0,2.9339407 -0.111281,12.6261327 -0.162948,22.9071487 -33.384392,-7.442837 -40.428896,14.516894 -40.428896,14.516894 -5.458746,14.221463 -13.32395,18.002986 -13.32395,18.002986 -10.887683,7.636396 0.8207,7.479512 0.8207,7.479512 12.050176,-0.86592 18.395198,-12.681144 18.395198,-12.681144 10.702877,-18.807782 28.072697,-13.369805 34.920472,-10.226006 1.077044,7.952202 4.186959,13.38203 7.618795,16.45248 -26.653861,3.1112 -54.672904,13.661161 -54.672904,60.805917 0,13.43297 4.687725,24.40876 12.364148,33.02517 -1.245953,3.10102 -5.353426,15.61305 1.162492,32.56063 0,0 10.07692,3.3068 33.008818,-12.61187 9.57218,2.72612 19.837882,4.09326 30.036022,4.14012 10.19813,-0.0469 20.47178,-1.414 30.06185,-4.14012 22.90407,15.91867 32.96708,12.61187 32.96708,12.61187 6.53181,-16.94758 2.42235,-29.45961 1.1764,-32.56063 7.69431,-8.61641 12.35024,-19.5922 12.35024,-33.02517 0,-47.256816 -28.07269,-57.662118 -54.79412,-60.708119 4.3042,-3.818198 8.13944,-11.305859 8.13944,-22.784902 0,-16.462667 -0.13911,-29.712261 -0.13911,-33.7647667 0,-3.2741963 2.16005,-7.1107312 8.24277,-5.90251812 C 205.65978,16.51522 240,62.618837 240,116.96194 c 0,67.95333 -53.72702,123.03807 -119.999,123.03807" /><path
       inkscape:connector-curvature="0"
       id="path20"
       style="fill:#1b1817;fill-opacity:1;fill-rule:nonzero;stroke:none"
       d="m 45.450468,63.344173 c -0.264293,-0.613275 -1.202236,-0.794609 -2.056717,-0.374893 -0.870379,0.40138 -1.359222,1.2347 -1.077044,1.847975 0.258331,0.627538 1.198261,0.802759 2.066652,0.38508 0.872366,-0.403417 1.369158,-1.244887 1.067109,-1.858162 l 0,0" /><path
       inkscape:connector-curvature="0"
       id="path22"
       style="fill:#1b1817;fill-opacity:1;fill-rule:nonzero;stroke:none"
       d="m 50.311076,57.785985 c -0.572304,-0.544001 -1.691078,-0.291357 -2.450176,0.568451 -0.78493,0.85777 -0.931981,2.00486 -0.351728,2.557011 0.590188,0.541964 1.675181,0.287282 2.462099,-0.568451 0.784931,-0.867958 0.937942,-2.006897 0.339805,-2.557011 l 0,0" /><path
       inkscape:connector-curvature="0"
       id="path24"
       style="fill:#1b1817;fill-opacity:1;fill-rule:nonzero;stroke:none"
       d="m 55.042519,50.699703 c -0.735251,-0.523627 -1.937487,-0.0326 -2.680687,1.061516 -0.735252,1.094116 -0.735252,2.406239 0.0159,2.931904 0.745187,0.525664 1.929539,0.05094 2.682675,-1.032992 0.733264,-1.112453 0.733264,-2.424576 -0.01788,-2.960428 l 0,0" /><path
       inkscape:connector-curvature="0"
       id="path26"
       style="fill:#1b1817;fill-opacity:1;fill-rule:nonzero;stroke:none"
       d="m 61.524655,43.853842 c -0.657752,-0.743673 -2.058704,-0.544002 -3.084082,0.470653 -1.049223,0.992242 -1.341337,2.400126 -0.681598,3.143799 0.665701,0.74571 2.074602,0.535851 3.107928,-0.470653 1.041275,-0.990205 1.359222,-2.408277 0.657752,-3.143799 l 0,0" /><path
       inkscape:connector-curvature="0"
       id="path28"
       style="fill:#1b1817;fill-opacity:1;fill-rule:nonzero;stroke:none"
       d="m 70.466903,39.87876 c -0.290126,-0.963719 -1.639412,-1.401772 -2.998634,-0.992243 -1.357234,0.421754 -2.245497,1.550506 -1.971268,2.524412 0.282177,0.96983 1.637425,1.426221 3.006582,0.988167 1.355247,-0.419716 2.245498,-1.540319 1.96332,-2.520336 l 0,0" /><path
       inkscape:connector-curvature="0"
       id="path30"
       style="fill:#1b1817;fill-opacity:1;fill-rule:nonzero;stroke:none"
       d="m 80.287479,39.141199 c 0.03378,-1.014654 -1.118775,-1.856125 -2.54556,-1.874462 -1.434734,-0.0326 -2.595239,0.788497 -2.611137,1.786852 0,1.024841 1.126724,1.858162 2.561458,1.882612 1.426785,0.02852 2.595239,-0.786459 2.595239,-1.795002 l 0,0" /><path
       inkscape:connector-curvature="0"
       id="path32"
       style="fill:#1b1817;fill-opacity:1;fill-rule:nonzero;stroke:none"
       d="m 89.426456,40.73653 c 0.170896,-0.990205 -0.8207,-2.006897 -2.237549,-2.277879 -1.393004,-0.260795 -2.682674,0.350443 -2.859532,1.332498 -0.172884,1.014654 0.836597,2.031346 2.227613,2.294178 1.418837,0.252645 2.688636,-0.342293 2.869468,-1.348797 l 0,0" /></g></svg>