<?xml version="1.0" encoding="utf-8"?>
<!-- Generator: Adobe Illustrator 25.2.1, SVG Export Plug-In . SVG Version: 6.00 Build 0)  -->
<svg version="1.1" id="Layer_1" xmlns="http://www.w3.org/2000/svg" xmlns:xlink="http://www.w3.org/1999/xlink" x="0px" y="0px"
	 viewBox="0 0 40 40" style="enable-background:new 0 0 283.46 36.54;" xml:space="preserve">
<style type="text/css">
	.st0{fill:#003790;}
	.st1{fill:#FC5055;}
</style>
<path class="st1" d="M0,18.27c0,10.09,8.18,18.27,18.27,18.27c0.24,0,0.49-0.01,0.73-0.02V29.6h-0.73
	c-6.26,0-11.33-5.07-11.33-11.33S12.02,6.94,18.27,6.94H19V0.02C18.76,0.01,18.52,0,18.27,0C8.18,0,0,8.18,0,18.27"/>
<path class="st0" d="M21.92,0.37v9.5h-3.65c-4.64,0-8.41,3.76-8.41,8.41c0,4.64,3.77,8.4,8.41,8.4h3.65v9.5
	c8.34-1.69,14.62-9.06,14.62-17.9C36.54,9.43,30.27,2.06,21.92,0.37"/>
</svg>
