<?xml version="1.0" encoding="UTF-8" standalone="no"?>
<!-- Created with Inkscape (http://www.inkscape.org/) -->
<svg id="svg2" xmlns:rdf="http://www.w3.org/1999/02/22-rdf-syntax-ns#" xmlns="http://www.w3.org/2000/svg" xmlns:osb="http://www.openswatchbook.org/uri/2009/osb" height="300" width="300" version="1.1" xmlns:cc="http://creativecommons.org/ns#" xmlns:xlink="http://www.w3.org/1999/xlink" xmlns:dc="http://purl.org/dc/elements/1.1/">
 <defs id="defs4">
  <radialGradient id="radialGradient4399" gradientUnits="userSpaceOnUse" cy="924.79" cx="128.45" gradientTransform="matrix(1.2198296,-3.3664458e-7,3.3577732e-7,1.2166871,-6.69284,-222.8239)" r="123.45">
   <stop id="stop4403" stop-color="#FFF" stop-opacity="0.19607843" offset="0"/>
   <stop id="stop4409" stop-color="#FFF" stop-opacity="0.19607843" offset="0.83564"/>
   <stop id="stop4405" stop-color="#FFF" stop-opacity="0.09803922" offset="0.88007"/>
   <stop id="stop4407" stop-color="#FFF" stop-opacity="0.09803922" offset="0.97771"/>
   <stop id="stop4401" stop-color="#FFF" stop-opacity="0" offset="1"/>
  </radialGradient>
 </defs>
 <metadata id="metadata7">
  <rdf:RDF>
   <cc:Work rdf:about="">
    <dc:format>image/svg+xml</dc:format>
    <dc:type rdf:resource="http://purl.org/dc/dcmitype/StillImage"/>
    <dc:title/>
   </cc:Work>
  </rdf:RDF>
 </metadata>
 <g id="layer1" transform="translate(0,-752.36211)">
  <path id="rect5466" d="M299.57,752.79,300,1052.4,0,1051.9,0.42958,752.36z" stroke-miterlimit="4" stroke-width="0" fill="url(#radialGradient4399)"/>
  <flowRoot id="flowRoot6286" style="letter-spacing:0px;word-spacing:0px;" font-weight="normal" xml:space="preserve" font-size="20px" font-style="italic" font-stretch="normal" line-height="125%" font-variant="normal" font-family="Serif" fill="#000000"><flowRegion id="flowRegion6288"><rect id="rect6290" y="-675.81" width="14.142" x="291.33" height="25.456"/></flowRegion><flowPara id="flowPara6292"/></flowRoot>
  <flowRoot id="flowRoot5545" style="letter-spacing:0px;word-spacing:0px;" font-weight="bold" xml:space="preserve" font-size="25px" transform="translate(0,752.13206)" font-stretch="normal" line-height="125%" font-variant="normal" font-style="normal" font-family="Sawasdee" fill="#000000"><flowRegion id="flowRegion5547"><rect id="rect5549" y="230.23" width="32" x="726" height="78"/></flowRegion><flowPara id="flowPara5551"/></flowRoot>
  <flowRoot id="flowRoot4538" style="letter-spacing:0px;word-spacing:0px;" line-height="125%" font-weight="normal" xml:space="preserve" font-size="4.48421144px" transform="matrix(28.869376,0,0,29.484411,-1067.0822,-1690.5399)" font-style="normal" font-family="Sans" fill="#ffffff"><flowRegion id="flowRegion4540"><rect id="rect4542" height="5.6378" width="10.298" y="85.106" x="36.879" fill="#FFF"/></flowRegion><flowPara id="flowPara4544" style="text-anchor:middle;text-align:center;" font-weight="bold" font-size="4.48421144px" font-style="normal" font-stretch="normal" font-variant="normal" font-family="Serif">Portfolio</flowPara></flowRoot>
  <g id="text4831" style="letter-spacing:0px;word-spacing:0px;" font-weight="normal" transform="scale(1.0127889,0.98737259)" font-size="34.81535339px" font-style="normal" font-family="Sans" line-height="125%" fill="#FFF">
   <path id="path3059" d="m39.495,901.2,10.863,0c3.2299,0.00003,5.7062,0.71968,7.4289,2.159,1.7339,1.428,2.6009,3.468,2.601,6.1199-0.000024,2.6633-0.86701,4.7146-2.601,6.1539-1.7227,1.428-4.1989,2.142-7.4289,2.142h-4.3179v8.8058h-6.5449v-25.381m6.5449,4.7429,0,7.0889,3.6209,0c1.2693,0.00002,2.2496-0.30598,2.9409-0.91798,0.6913-0.62331,1.037-1.5016,1.037-2.635-0.000017-1.1333-0.34568-2.0059-1.037-2.618-0.69134-0.61197-1.6717-0.91796-2.9409-0.91798h-3.6209"/>
   <path id="path3061" d="m76.588,905.48c-1.9946,0.00003-3.5416,0.73668-4.6409,2.21s-1.649,3.5473-1.649,6.2219c-0.000009,2.6633,0.54965,4.7316,1.649,6.2049,1.0993,1.4733,2.6463,2.21,4.6409,2.21,2.0059,0.00001,3.5586-0.73665,4.6579-2.21,1.0993-1.4733,1.6489-3.5416,1.649-6.2049-0.000021-2.6746-0.54968-4.7486-1.649-6.2219s-2.652-2.2099-4.6579-2.21m0-4.7429c4.0799,0.00003,7.2758,1.1673,9.5878,3.5019,2.3119,2.3346,3.4679,5.5589,3.4679,9.6728-0.000028,4.1026-1.156,7.3212-3.4679,9.6558-2.312,2.3346-5.5079,3.5019-9.5878,3.5019-4.0686,0-7.2645-1.1673-9.5878-3.5019-2.312-2.3346-3.4679-5.5532-3.4679-9.6558-0.000002-4.1139,1.156-7.3382,3.4679-9.6728,2.3233-2.3346,5.5192-3.5019,9.5878-3.5019"/>
   <path id="path3063" d="m103.87,912.45c1.3713,0.00002,2.3516-0.25498,2.941-0.76498,0.60064-0.50998,0.90097-1.3486,0.90098-2.516-0.00001-1.156-0.30034-1.9833-0.90098-2.482-0.58934-0.49864-1.5696-0.74796-2.941-0.74798h-2.754v6.5109h2.754m-2.754,4.5219,0,9.6048-6.5449,0,0-25.381,9.9958,0c3.3432,0.00003,5.7912,0.56102,7.3439,1.683,1.564,1.122,2.3459,2.8956,2.346,5.3209-0.00002,1.6773-0.40801,3.0543-1.224,4.1309-0.80467,1.0767-2.023,1.87-3.6549,2.38,0.8953,0.20401,1.6943,0.66867,2.397,1.394,0.71396,0.71399,1.4336,1.802,2.159,3.2639l3.5529,7.2079h-6.9699l-3.0939-6.3069c-0.62334-1.2693-1.258-2.1363-1.904-2.601-0.63467-0.46465-1.4846-0.69698-2.55-0.69699h-1.853"/>
   <path id="path3065" d="m116.78,901.2,23.392,0,0,4.9469-8.4148,0,0,20.434-6.5449,0,0-20.434-8.4318,0,0-4.9469"/>
   <path id="path3067" d="m143.53,901.2,17.663,0,0,4.9469-11.118,0,0,4.7259,10.455,0,0,4.9469-10.455,0,0,10.761-6.5449,0,0-25.381"/>
   <path id="path3069" d="m178.93,905.48c-1.9946,0.00003-3.5416,0.73668-4.6409,2.21s-1.649,3.5473-1.649,6.2219c-0.00001,2.6633,0.54965,4.7316,1.649,6.2049,1.0993,1.4733,2.6463,2.21,4.6409,2.21,2.006,0.00001,3.5586-0.73665,4.6579-2.21,1.0993-1.4733,1.6489-3.5416,1.649-6.2049-0.00002-2.6746-0.54967-4.7486-1.649-6.2219s-2.652-2.2099-4.6579-2.21m0-4.7429c4.0799,0.00003,7.2758,1.1673,9.5878,3.5019,2.3119,2.3346,3.4679,5.5589,3.4679,9.6728-0.00003,4.1026-1.156,7.3212-3.4679,9.6558-2.312,2.3346-5.5079,3.5019-9.5878,3.5019-4.0686,0-7.2645-1.1673-9.5878-3.5019-2.312-2.3346-3.4679-5.5532-3.4679-9.6558,0-4.1139,1.156-7.3382,3.4679-9.6728,2.3233-2.3346,5.5192-3.5019,9.5878-3.5019"/>
   <path id="path3071" d="m196.91,901.2,6.5449,0,0,20.434,11.492,0,0,4.9469-18.037,0,0-25.381"/>
   <path id="path3073" d="m219.08,901.2,6.5449,0,0,25.381-6.5449,0,0-25.381"/>
   <path id="path3075" d="m243.66,905.48c-1.9946,0.00003-3.5416,0.73668-4.6409,2.21s-1.649,3.5473-1.649,6.2219c-0.00001,2.6633,0.54964,4.7316,1.649,6.2049,1.0993,1.4733,2.6463,2.21,4.6409,2.21,2.0059,0.00001,3.5586-0.73665,4.6579-2.21,1.0993-1.4733,1.649-3.5416,1.649-6.2049-0.00002-2.6746-0.54968-4.7486-1.649-6.2219s-2.652-2.2099-4.6579-2.21m0-4.7429c4.0799,0.00003,7.2758,1.1673,9.5878,3.5019,2.3119,2.3346,3.4679,5.5589,3.4679,9.6728-0.00003,4.1026-1.156,7.3212-3.4679,9.6558-2.312,2.3346-5.5079,3.5019-9.5878,3.5019-4.0686,0-7.2645-1.1673-9.5878-3.5019-2.312-2.3346-3.4679-5.5532-3.4679-9.6558,0-4.1139,1.156-7.3382,3.4679-9.6728,2.3233-2.3346,5.5192-3.5019,9.5878-3.5019"/>
  </g>
 </g>
</svg>
