<?xml version="1.0" encoding="UTF-8" standalone="no"?>
<!-- Created with Inkscape (http://www.inkscape.org/) -->

<svg
   xmlns:dc="http://purl.org/dc/elements/1.1/"
   xmlns:cc="http://creativecommons.org/ns#"
   xmlns:rdf="http://www.w3.org/1999/02/22-rdf-syntax-ns#"
   xmlns:svg="http://www.w3.org/2000/svg"
   xmlns="http://www.w3.org/2000/svg"
   xmlns:sodipodi="http://sodipodi.sourceforge.net/DTD/sodipodi-0.dtd"
   xmlns:inkscape="http://www.inkscape.org/namespaces/inkscape"
   id="svg2"
   version="1.1"
   inkscape:version="0.48.4 r9939"
   width="200"
   height="120"
   xml:space="preserve"
   sodipodi:docname="rostelecom.svg"><metadata
     id="metadata8"><rdf:RDF><cc:Work
         rdf:about=""><dc:format>image/svg+xml</dc:format><dc:type
           rdf:resource="http://purl.org/dc/dcmitype/StillImage" /><dc:title></dc:title></cc:Work></rdf:RDF></metadata><defs
     id="defs6"><clipPath
       clipPathUnits="userSpaceOnUse"
       id="clipPath38"><path
         d="m 0,595.28 841.89,0 L 841.89,0 0,0 0,595.28 z"
         id="path40"
         inkscape:connector-curvature="0" /></clipPath><clipPath
       clipPathUnits="userSpaceOnUse"
       id="clipPath924"><path
         d="m 0,595.28 841.89,0 L 841.89,0 0,0 0,595.28 z"
         id="path926"
         inkscape:connector-curvature="0" /></clipPath><clipPath
       clipPathUnits="userSpaceOnUse"
       id="clipPath948"><path
         d="m 0,595.28 841.89,0 L 841.89,0 0,0 0,595.28 z"
         id="path950"
         inkscape:connector-curvature="0" /></clipPath><clipPath
       clipPathUnits="userSpaceOnUse"
       id="clipPath972"><path
         d="m 0,595.28 841.89,0 L 841.89,0 0,0 0,595.28 z"
         id="path974"
         inkscape:connector-curvature="0" /></clipPath><clipPath
       clipPathUnits="userSpaceOnUse"
       id="clipPath996"><path
         d="m 0,595.28 841.89,0 L 841.89,0 0,0 0,595.28 z"
         id="path998"
         inkscape:connector-curvature="0" /></clipPath><clipPath
       clipPathUnits="userSpaceOnUse"
       id="clipPath1020"><path
         d="m 0,595.28 841.89,0 L 841.89,0 0,0 0,595.28 z"
         id="path1022"
         inkscape:connector-curvature="0" /></clipPath><clipPath
       clipPathUnits="userSpaceOnUse"
       id="clipPath1068"><path
         d="m 339.765,545.02 0,-0.002 c -28.798,-17.553 -13.201,-62.701 -1.441,-76.649 l 0,0 c 0.171,-0.202 1.438,-1.598 1.838,-1.988 l 0,0 c 7.383,-7.253 17.953,-8.46 23.605,-2.705 l 0,0 c 5.514,5.621 4.288,15.803 -2.65,23.029 l 0,0 c -7.291,7.86 -15.562,11.872 -22.308,21.837 l 0,0 c -3.788,5.31 -6.022,11.76 -6.309,17.958 l 0,0 c -0.021,0.443 -0.033,0.886 -0.033,1.336 l 0,0 0,0.019 0,0.021 c 0,5.151 1.513,9.841 4.003,13.399 l 0,0 c 1.394,2.371 4.482,4.772 8.471,6.346 l 0,0 c -1.791,-0.678 -3.527,-1.55 -5.176,-2.601"
         id="path1070"
         inkscape:connector-curvature="0" /></clipPath><linearGradient
       x1="0"
       y1="0"
       x2="1"
       y2="0"
       gradientUnits="userSpaceOnUse"
       gradientTransform="matrix(31.315353,-35.229828,-35.229828,-31.315353,337.8042,512.30127)"
       spreadMethod="pad"
       id="linearGradient1076"><stop
         style="stop-opacity:1;stop-color:#00ade8"
         offset="0"
         id="stop1078" /><stop
         style="stop-opacity:1;stop-color:#294785"
         offset="1"
         id="stop1080" /></linearGradient><clipPath
       clipPathUnits="userSpaceOnUse"
       id="clipPath1088"><path
         d="m 353.268,549.291 c -0.447,-0.013 -0.893,-0.037 -1.337,-0.076 l 0,0 c 2.384,0.127 4.446,-0.245 5.849,-1.076 l 0,0 c 0.251,-0.139 0.494,-0.29 0.731,-0.456 l 0,0 c 1.149,-0.793 2.07,-1.828 2.762,-3.037 l 0,0 c 1.112,-1.824 1.663,-4.088 1.663,-6.566 l 0,0 0,-0.177 0,-0.006 c -0.035,-5.029 -2.309,-10.929 -6.685,-15.86 l 0,0 c -0.115,-0.125 -0.23,-0.252 -0.341,-0.381 l 0,0 -0.004,-0.005 c -0.371,-0.422 -0.72,-0.874 -1.05,-1.348 l 0,0 c -4.333,-6.227 -3.393,-14.371 2.091,-18.185 l 0,0 c 5.492,-3.816 13.452,-1.858 17.783,4.37 l 0,0 c 0.217,0.314 0.421,0.632 0.611,0.952 l 0,0 c 12.198,19.129 -1.519,41.872 -21.005,41.873 l 0,0 c -0.355,0 -0.709,-0.007 -1.068,-0.022"
         id="path1090"
         inkscape:connector-curvature="0" /></clipPath><linearGradient
       x1="0"
       y1="0"
       x2="1"
       y2="0"
       gradientUnits="userSpaceOnUse"
       gradientTransform="matrix(0,33.731125,33.731125,0,365.94336,511.94336)"
       spreadMethod="pad"
       id="linearGradient1096"><stop
         style="stop-opacity:1;stop-color:#00ade8"
         offset="0"
         id="stop1098" /><stop
         style="stop-opacity:1;stop-color:#294785"
         offset="1"
         id="stop1100" /></linearGradient><clipPath
       clipPathUnits="userSpaceOnUse"
       id="clipPath1108"><path
         d="m 345.494,547.833 c -4.255,-1.565 -7.57,-4.078 -9.024,-6.558 l 0,0 c -2.49,-3.558 -4.003,-8.248 -4.003,-13.396 l 0,0 c 0,-0.449 0.012,-0.894 0.033,-1.335 l 0,0 c 0.287,-6.209 2.521,-12.667 6.309,-17.986 l 0,0 c 3.068,-4.535 6.444,-7.837 9.906,-10.831 l 0,0 c -3.976,3.471 -6.422,9.719 -6.012,16.69 l 0,0 c 0.615,10.345 7.293,18.362 14.928,17.911 l 0,0 c 1.41,-0.084 2.82,-0.515 4.072,-1.13 l 0,0 c 0.803,2.294 1.217,4.576 1.233,6.699 l 0,0 0,0.006 0,0.177 c 0,2.478 -0.551,4.742 -1.663,6.566 l 0,0 -0.001,0.003 c -0.694,1.209 -1.614,2.241 -2.761,3.034 l 0,0 c -0.237,0.166 -0.48,0.317 -0.734,0.456 l 0,0 c -1.222,0.725 -2.946,1.101 -4.947,1.101 l 0,0 c -2.207,10e-4 -4.752,-0.457 -7.336,-1.407"
         id="path1110"
         inkscape:connector-curvature="0" /></clipPath><linearGradient
       x1="0"
       y1="0"
       x2="1"
       y2="0"
       gradientUnits="userSpaceOnUse"
       gradientTransform="matrix(30.46875,0,0,-30.46875,332.4668,523.4834)"
       spreadMethod="pad"
       id="linearGradient1116"><stop
         style="stop-opacity:1;stop-color:#fdbe66"
         offset="0"
         id="stop1118" /><stop
         style="stop-opacity:1;stop-color:#f05737"
         offset="0.800003"
         id="stop1120" /><stop
         style="stop-opacity:1;stop-color:#f05737"
         offset="0.800003"
         id="stop1122" /><stop
         style="stop-opacity:1;stop-color:#f05737"
         offset="1"
         id="stop1124" /></linearGradient><clipPath
       clipPathUnits="userSpaceOnUse"
       id="clipPath1132"><path
         d="m 0,595.28 841.89,0 L 841.89,0 0,0 0,595.28 z"
         id="path1134"
         inkscape:connector-curvature="0" /></clipPath><clipPath
       clipPathUnits="userSpaceOnUse"
       id="clipPath1238"><path
         d="m 339.765,272.472 0,-0.002 c -28.798,-17.554 -13.201,-62.702 -1.441,-76.65 l 0,0 c 0.171,-0.203 1.438,-1.595 1.838,-1.988 l 0,0 c 7.383,-7.253 17.953,-8.459 23.605,-2.704 l 0,0 c 5.514,5.622 4.288,15.802 -2.65,23.031 l 0,0 c -7.291,7.857 -15.562,11.871 -22.308,21.835 l 0,0 c -3.788,5.309 -6.022,11.76 -6.309,17.957 l 0,0 c -0.021,0.444 -0.033,0.888 -0.033,1.339 l 0,0 0,0.018 0,0.019 c 0,5.152 1.513,9.841 4.003,13.401 l 0,0 c 1.394,2.369 4.482,4.77 8.471,6.344 l 0,0 c -1.791,-0.676 -3.527,-1.549 -5.176,-2.6"
         id="path1240"
         inkscape:connector-curvature="0" /></clipPath><linearGradient
       x1="0"
       y1="0"
       x2="1"
       y2="0"
       gradientUnits="userSpaceOnUse"
       gradientTransform="matrix(31.316147,-35.230713,-35.230713,-31.316147,337.80371,239.75293)"
       spreadMethod="pad"
       id="linearGradient1246"><stop
         style="stop-opacity:1;stop-color:#00ade8"
         offset="0"
         id="stop1248" /><stop
         style="stop-opacity:1;stop-color:#294785"
         offset="1"
         id="stop1250" /></linearGradient><clipPath
       clipPathUnits="userSpaceOnUse"
       id="clipPath1258"><path
         d="m 353.268,276.742 c -0.447,-0.012 -0.893,-0.037 -1.337,-0.075 l 0,0 c 2.384,0.128 4.446,-0.243 5.849,-1.075 l 0,0 c 0.251,-0.141 0.494,-0.292 0.731,-0.458 l 0,0 c 1.149,-0.791 2.07,-1.826 2.762,-3.037 l 0,0 c 1.112,-1.823 1.663,-4.087 1.663,-6.564 l 0,0 0,-0.178 0,-0.007 c -0.035,-5.028 -2.309,-10.929 -6.685,-15.86 l 0,0 c -0.115,-0.123 -0.23,-0.252 -0.341,-0.379 l 0,0 -0.004,-0.005 c -0.371,-0.424 -0.72,-0.876 -1.05,-1.348 l 0,0 c -4.333,-6.229 -3.393,-14.373 2.091,-18.187 l 0,0 c 5.492,-3.815 13.452,-1.858 17.783,4.372 l 0,0 c 0.217,0.313 0.421,0.631 0.611,0.952 l 0,0 c 12.198,19.128 -1.519,41.87 -21.005,41.872 l 0,0 c -0.355,0 -0.709,-0.008 -1.068,-0.023"
         id="path1260"
         inkscape:connector-curvature="0" /></clipPath><linearGradient
       x1="0"
       y1="0"
       x2="1"
       y2="0"
       gradientUnits="userSpaceOnUse"
       gradientTransform="matrix(0,33.730789,33.730789,0,365.94336,239.39551)"
       spreadMethod="pad"
       id="linearGradient1266"><stop
         style="stop-opacity:1;stop-color:#00ade8"
         offset="0"
         id="stop1268" /><stop
         style="stop-opacity:1;stop-color:#294785"
         offset="1"
         id="stop1270" /></linearGradient><clipPath
       clipPathUnits="userSpaceOnUse"
       id="clipPath1278"><path
         d="m 345.494,275.285 c -4.255,-1.565 -7.57,-4.078 -9.024,-6.557 l 0,0 c -2.49,-3.56 -4.003,-8.249 -4.003,-13.398 l 0,0 c 0,-0.447 0.012,-0.893 0.033,-1.335 l 0,0 c 0.287,-6.21 2.521,-12.664 6.309,-17.985 l 0,0 c 3.068,-4.534 6.444,-7.837 9.906,-10.833 l 0,0 c -3.976,3.472 -6.422,9.72 -6.012,16.692 l 0,0 c 0.615,10.346 7.293,18.363 14.928,17.912 l 0,0 c 1.41,-0.086 2.82,-0.517 4.072,-1.132 l 0,0 c 0.803,2.296 1.217,4.576 1.233,6.699 l 0,0 0,0.007 0,0.178 c 0,2.477 -0.551,4.741 -1.663,6.564 l 0,0 -0.001,0.004 c -0.694,1.208 -1.614,2.242 -2.761,3.033 l 0,0 c -0.237,0.166 -0.48,0.317 -0.734,0.458 l 0,0 c -1.222,0.725 -2.945,1.1 -4.945,1.1 l 0,0 c -2.208,10e-4 -4.754,-0.457 -7.338,-1.407"
         id="path1280"
         inkscape:connector-curvature="0" /></clipPath><linearGradient
       x1="0"
       y1="0"
       x2="1"
       y2="0"
       gradientUnits="userSpaceOnUse"
       gradientTransform="matrix(30.46875,0,0,-30.46875,332.4668,250.93457)"
       spreadMethod="pad"
       id="linearGradient1286"><stop
         style="stop-opacity:1;stop-color:#fdbe66"
         offset="0"
         id="stop1288" /><stop
         style="stop-opacity:1;stop-color:#f05737"
         offset="0.800003"
         id="stop1290" /><stop
         style="stop-opacity:1;stop-color:#f05737"
         offset="0.800003"
         id="stop1292" /><stop
         style="stop-opacity:1;stop-color:#f05737"
         offset="1"
         id="stop1294" /></linearGradient><clipPath
       clipPathUnits="userSpaceOnUse"
       id="clipPath1302"><path
         d="m 0,595.28 841.89,0 L 841.89,0 0,0 0,595.28 z"
         id="path1304"
         inkscape:connector-curvature="0" /></clipPath><clipPath
       clipPathUnits="userSpaceOnUse"
       id="clipPath1108-6"><path
         inkscape:connector-curvature="0"
         d="m 345.494,547.833 c -4.255,-1.565 -7.57,-4.078 -9.024,-6.558 l 0,0 c -2.49,-3.558 -4.003,-8.248 -4.003,-13.396 l 0,0 c 0,-0.449 0.012,-0.894 0.033,-1.335 l 0,0 c 0.287,-6.209 2.521,-12.667 6.309,-17.986 l 0,0 c 3.068,-4.535 6.444,-7.837 9.906,-10.831 l 0,0 c -3.976,3.471 -6.422,9.719 -6.012,16.69 l 0,0 c 0.615,10.345 7.293,18.362 14.928,17.911 l 0,0 c 1.41,-0.084 2.82,-0.515 4.072,-1.13 l 0,0 c 0.803,2.294 1.217,4.576 1.233,6.699 l 0,0 0,0.006 0,0.177 c 0,2.478 -0.551,4.742 -1.663,6.566 l 0,0 -0.001,0.003 c -0.694,1.209 -1.614,2.241 -2.761,3.034 l 0,0 c -0.237,0.166 -0.48,0.317 -0.734,0.456 l 0,0 c -1.222,0.725 -2.946,1.101 -4.947,1.101 l 0,0 c -2.207,10e-4 -4.752,-0.457 -7.336,-1.407"
         id="path1110-4" /></clipPath><linearGradient
       x1="0"
       y1="0"
       x2="1"
       y2="0"
       gradientUnits="userSpaceOnUse"
       gradientTransform="matrix(30.46875,0,0,-30.46875,332.4668,523.4834)"
       spreadMethod="pad"
       id="linearGradient1116-4"><stop
         style="stop-opacity:1;stop-color:#fdbe66"
         offset="0"
         id="stop1118-8" /><stop
         style="stop-opacity:1;stop-color:#f05737"
         offset="0.800003"
         id="stop1120-4" /><stop
         style="stop-opacity:1;stop-color:#f05737"
         offset="0.800003"
         id="stop1122-2" /><stop
         style="stop-opacity:1;stop-color:#f05737"
         offset="1"
         id="stop1124-3" /></linearGradient><clipPath
       clipPathUnits="userSpaceOnUse"
       id="clipPath1088-7"><path
         inkscape:connector-curvature="0"
         d="m 353.268,549.291 c -0.447,-0.013 -0.893,-0.037 -1.337,-0.076 l 0,0 c 2.384,0.127 4.446,-0.245 5.849,-1.076 l 0,0 c 0.251,-0.139 0.494,-0.29 0.731,-0.456 l 0,0 c 1.149,-0.793 2.07,-1.828 2.762,-3.037 l 0,0 c 1.112,-1.824 1.663,-4.088 1.663,-6.566 l 0,0 0,-0.177 0,-0.006 c -0.035,-5.029 -2.309,-10.929 -6.685,-15.86 l 0,0 c -0.115,-0.125 -0.23,-0.252 -0.341,-0.381 l 0,0 -0.004,-0.005 c -0.371,-0.422 -0.72,-0.874 -1.05,-1.348 l 0,0 c -4.333,-6.227 -3.393,-14.371 2.091,-18.185 l 0,0 c 5.492,-3.816 13.452,-1.858 17.783,4.37 l 0,0 c 0.217,0.314 0.421,0.632 0.611,0.952 l 0,0 c 12.198,19.129 -1.519,41.872 -21.005,41.873 l 0,0 c -0.355,0 -0.709,-0.007 -1.068,-0.022"
         id="path1090-1" /></clipPath><linearGradient
       x1="0"
       y1="0"
       x2="1"
       y2="0"
       gradientUnits="userSpaceOnUse"
       gradientTransform="matrix(0,33.731125,33.731125,0,365.94336,511.94336)"
       spreadMethod="pad"
       id="linearGradient1096-4"><stop
         style="stop-opacity:1;stop-color:#00ade8"
         offset="0"
         id="stop1098-6" /><stop
         style="stop-opacity:1;stop-color:#294785"
         offset="1"
         id="stop1100-6" /></linearGradient><clipPath
       clipPathUnits="userSpaceOnUse"
       id="clipPath1068-3"><path
         inkscape:connector-curvature="0"
         d="m 339.765,545.02 0,-0.002 c -28.798,-17.553 -13.201,-62.701 -1.441,-76.649 l 0,0 c 0.171,-0.202 1.438,-1.598 1.838,-1.988 l 0,0 c 7.383,-7.253 17.953,-8.46 23.605,-2.705 l 0,0 c 5.514,5.621 4.288,15.803 -2.65,23.029 l 0,0 c -7.291,7.86 -15.562,11.872 -22.308,21.837 l 0,0 c -3.788,5.31 -6.022,11.76 -6.309,17.958 l 0,0 c -0.021,0.443 -0.033,0.886 -0.033,1.336 l 0,0 0,0.019 0,0.021 c 0,5.151 1.513,9.841 4.003,13.399 l 0,0 c 1.394,2.371 4.482,4.772 8.471,6.346 l 0,0 c -1.791,-0.678 -3.527,-1.55 -5.176,-2.601"
         id="path1070-6" /></clipPath><linearGradient
       x1="0"
       y1="0"
       x2="1"
       y2="0"
       gradientUnits="userSpaceOnUse"
       gradientTransform="matrix(31.315353,-35.229828,-35.229828,-31.315353,337.8042,512.30127)"
       spreadMethod="pad"
       id="linearGradient1076-3"><stop
         style="stop-opacity:1;stop-color:#00ade8"
         offset="0"
         id="stop1078-6" /><stop
         style="stop-opacity:1;stop-color:#294785"
         offset="1"
         id="stop1080-7" /></linearGradient></defs><sodipodi:namedview
     pagecolor="#ffffff"
     bordercolor="#666666"
     borderopacity="1"
     objecttolerance="10"
     gridtolerance="10"
     guidetolerance="10"
     inkscape:pageopacity="0"
     inkscape:pageshadow="2"
     inkscape:window-width="1240"
     inkscape:window-height="876"
     id="namedview4"
     showgrid="false"
     inkscape:zoom="2.5086412"
     inkscape:cx="120.96535"
     inkscape:cy="73.201164"
     inkscape:window-x="1366"
     inkscape:window-y="24"
     inkscape:window-maximized="1"
     inkscape:current-layer="g10" /><g
     id="g10"
     inkscape:groupmode="layer"
     inkscape:label="rostelecom"
     transform="matrix(1.25,0,0,-1.25,0,120.00002)"><g
       transform="translate(-271.39994,-456.64057)"
       id="g1064"><g
         id="g1066"
         clip-path="url(#clipPath1068-3)"><g
           id="g1072"><g
             id="g1074"><path
               inkscape:connector-curvature="0"
               d="m 339.765,545.02 0,-0.002 c -28.798,-17.553 -13.201,-62.701 -1.441,-76.649 l 0,0 c 0.171,-0.202 1.438,-1.598 1.838,-1.988 l 0,0 c 7.383,-7.253 17.953,-8.46 23.605,-2.705 l 0,0 c 5.514,5.621 4.288,15.803 -2.65,23.029 l 0,0 c -7.291,7.86 -15.562,11.872 -22.308,21.837 l 0,0 c -3.788,5.31 -6.022,11.76 -6.309,17.958 l 0,0 c -0.021,0.443 -0.033,0.886 -0.033,1.336 l 0,0 0,0.019 0,0.021 c 0,5.151 1.513,9.841 4.003,13.399 l 0,0 c 1.394,2.371 4.482,4.772 8.471,6.346 l 0,0 c -1.791,-0.678 -3.527,-1.55 -5.176,-2.601"
               style="fill:url(#linearGradient1076-3);stroke:none"
               id="path1082" /></g></g></g></g><g
       transform="translate(-271.39994,-456.64057)"
       id="g1084"><g
         id="g1086"
         clip-path="url(#clipPath1088-7)"><g
           id="g1092"><g
             id="g1094"><path
               inkscape:connector-curvature="0"
               d="m 353.268,549.291 c -0.447,-0.013 -0.893,-0.037 -1.337,-0.076 l 0,0 c 2.384,0.127 4.446,-0.245 5.849,-1.076 l 0,0 c 0.251,-0.139 0.494,-0.29 0.731,-0.456 l 0,0 c 1.149,-0.793 2.07,-1.828 2.762,-3.037 l 0,0 c 1.112,-1.824 1.663,-4.088 1.663,-6.566 l 0,0 0,-0.177 0,-0.006 c -0.035,-5.029 -2.309,-10.929 -6.685,-15.86 l 0,0 c -0.115,-0.125 -0.23,-0.252 -0.341,-0.381 l 0,0 -0.004,-0.005 c -0.371,-0.422 -0.72,-0.874 -1.05,-1.348 l 0,0 c -4.333,-6.227 -3.393,-14.371 2.091,-18.185 l 0,0 c 5.492,-3.816 13.452,-1.858 17.783,4.37 l 0,0 c 0.217,0.314 0.421,0.632 0.611,0.952 l 0,0 c 12.198,19.129 -1.519,41.872 -21.005,41.873 l 0,0 c -0.355,0 -0.709,-0.007 -1.068,-0.022"
               style="fill:url(#linearGradient1096-4);stroke:none"
               id="path1102" /></g></g></g></g><g
       transform="translate(-271.39994,-456.64057)"
       id="g1104"><g
         id="g1106"
         clip-path="url(#clipPath1108-6)"><g
           id="g1112"><g
             id="g1114"><path
               inkscape:connector-curvature="0"
               d="m 345.494,547.833 c -4.255,-1.565 -7.57,-4.078 -9.024,-6.558 l 0,0 c -2.49,-3.558 -4.003,-8.248 -4.003,-13.396 l 0,0 c 0,-0.449 0.012,-0.894 0.033,-1.335 l 0,0 c 0.287,-6.209 2.521,-12.667 6.309,-17.986 l 0,0 c 3.068,-4.535 6.444,-7.837 9.906,-10.831 l 0,0 c -3.976,3.471 -6.422,9.719 -6.012,16.69 l 0,0 c 0.615,10.345 7.293,18.362 14.928,17.911 l 0,0 c 1.41,-0.084 2.82,-0.515 4.072,-1.13 l 0,0 c 0.803,2.294 1.217,4.576 1.233,6.699 l 0,0 0,0.006 0,0.177 c 0,2.478 -0.551,4.742 -1.663,6.566 l 0,0 -0.001,0.003 c -0.694,1.209 -1.614,2.241 -2.761,3.034 l 0,0 c -0.237,0.166 -0.48,0.317 -0.734,0.456 l 0,0 c -1.222,0.725 -2.946,1.101 -4.947,1.101 l 0,0 c -2.207,10e-4 -4.752,-0.457 -7.336,-1.407"
               style="fill:url(#linearGradient1116-4);stroke:none"
               id="path1126" /></g></g></g></g></g></svg>